<svg aria-hidden="true" style="position:absolute;width:0;height:0;overflow:hidden" xmlns="http://www.w3.org/2000/svg"><defs><symbol id="attention" viewBox="0 0 32 32"><path fill="#212121" style="fill:var(--color1, #212121)" d="m30.773 22.098-8.443-8.505.937-4.615c.242.094.499.144.758.146h.006a2.159 2.159 0 1 0-2.008-1.435l-4.96.605L8.972.161a.534.534 0 0 0-.377-.16.532.532 0 0 0-.373.155L6.709 1.66a.534.534 0 0 0 0 .754l.814.826a14.943 14.943 0 0 0 2.519 17.663.513.513 0 0 0 .146.098c-.034.18-.051.364-.052.547v6.187h-6.4a2.67 2.67 0 0 0-2.667 2.667v1.067c0 .295.239.533.533.533h24.533a.533.533 0 0 0 .533-.533v-1.067a2.67 2.67 0 0 0-2.667-2.667h-6.4v-2.742a15.09 15.09 0 0 0 3.049.32 14.854 14.854 0 0 0 7.04-1.783l.818.823a.534.534 0 0 0 .377.16.532.532 0 0 0 .373-.155l1.513-1.504a.534.534 0 0 0 0-.754zM23.28 6.233a1.066 1.066 0 1 1 .752 1.822h-.003a1.067 1.067 0 0 1-.747-1.823h-.002zm-1.256 3.505-.598 2.946-1.175-1.182 1.774-1.763zm-.605-.902-1.92 1.909-1.485-1.493 3.405-.415zM24.004 28.8a1.6 1.6 0 0 1 1.6 1.6v.533H2.137V30.4a1.6 1.6 0 0 1 1.6-1.6h20.267zm-7.467-2.133v1.067h-5.333v-1.067h5.333zM11.204 25.6v-4.053c0-1.294 1.196-2.347 2.667-2.347s2.667 1.053 2.667 2.347V25.6h-5.333zm6.4-1.696v-2.357c0-1.882-1.675-3.413-3.733-3.413a3.8 3.8 0 0 0-3.281 1.786A13.87 13.87 0 0 1 8.311 4.033l18.602 18.708a13.818 13.818 0 0 1-9.309 1.163zm11.289-.684L7.836 2.039l.755-.752 7.935 7.98c.004 0 .006.007.01.01l13.115 13.191-.757.752z"/><path fill="#2196f3" style="fill:var(--color2, #2196f3)" d="M13.876 20.267h-.005a1.6 1.6 0 1 0-.004 3.2h.005a1.6 1.6 0 1 0 .004-3.2zm.373 1.978a.534.534 0 0 1-.752-.756.534.534 0 0 1 .373-.155.532.532 0 0 1 .373.911h.005z"/></symbol><symbol id="client1" viewBox="0 0 32 32"><path fill="#afb1b8" style="fill:var(--color3, #afb1b8)" d="m6.128 0 4.771 4.517-8.856-.005v21.915h23.149v-8.379l4.766 4.512V.001H6.128zm18.854 17.517L11.454 4.71h13.528v12.807zm-4.2 5.704H5.706V8.482h1.066v13.741h14.01v.998zM9.266 29.344l-.557 1.147-.557-1.147h-.467l.813 1.529v.891h.422v-.891l.811-1.529h-.465zm.699 2.42.196-.563h.938l.198.563h.439l-.916-2.42h-.377l-.914 2.42h.437zm.665-1.906.351 1.004h-.701l.351-1.004zm2.218.946a.55.55 0 0 0-.091.307c0 .204.072.37.214.497.144.126.336.189.575.189s.445-.065.618-.194l.136.161h.469l-.356-.421c.14-.191.209-.435.209-.733h-.351a.973.973 0 0 1-.101.444l-.467-.552.165-.12a.905.905 0 0 0 .251-.253.532.532 0 0 0 .076-.279.496.496 0 0 0-.17-.384.61.61 0 0 0-.432-.156.641.641 0 0 0-.465.166.591.591 0 0 0-.173.449c0 .078.018.158.055.241.038.083.104.184.198.303-.18.129-.3.24-.361.334zm1.092.535a.616.616 0 0 1-.382.136c-.121 0-.217-.035-.289-.105s-.108-.161-.108-.273c0-.13.067-.245.2-.346l.052-.037.529.623zm-.434-1.072c-.114-.141-.171-.258-.171-.351 0-.081.023-.148.07-.201s.109-.08.188-.08c.073 0 .133.023.181.068a.21.21 0 0 1 .072.161.298.298 0 0 1-.103.234l-.052.042-.184.126zm3.939 1.314c.166-.145.262-.347.286-.605h-.419c-.022.173-.075.296-.158.371s-.207.111-.372.111a.468.468 0 0 1-.412-.206c-.093-.137-.14-.337-.14-.598v-.214c.002-.258.052-.454.15-.587a.493.493 0 0 1 .422-.201c.157 0 .276.039.357.116.082.076.133.202.153.376h.419c-.027-.265-.121-.47-.284-.615s-.378-.218-.645-.218a.978.978 0 0 0-.525.141c-.151.094-.267.228-.347.402s-.121.375-.121.603v.226c.003.223.045.418.125.587s.193.299.339.391a.949.949 0 0 0 .51.136c.276 0 .497-.072.663-.216zm2.472-.339c.082-.18.123-.388.123-.625v-.135a1.462 1.462 0 0 0-.126-.62.924.924 0 0 0-.878-.552.957.957 0 0 0-.525.145.939.939 0 0 0-.354.414 1.484 1.484 0 0 0-.125.625v.136c.001.232.043.436.126.613a.962.962 0 0 0 .356.411.98.98 0 0 0 .525.143.97.97 0 0 0 .525-.143.932.932 0 0 0 .352-.412zm-.45-1.368c.102.143.153.349.153.617v.126c0 .273-.05.48-.151.622a.493.493 0 0 1-.429.213.503.503 0 0 1-.432-.218c-.103-.145-.155-.351-.155-.617v-.14c.002-.26.054-.462.156-.603a.496.496 0 0 1 .427-.214c.186 0 .33.072.43.214z"/></symbol><symbol id="client2" viewBox="0 0 32 32"><path fill="#afb1b8" style="fill:var(--color3, #afb1b8)" d="M14.224 1.806h-.084a9.985 9.985 0 0 0-.388-.014h-.28c-.244 0-.494.006-.741.019a.523.523 0 0 0-.056 0 17.4 17.4 0 0 0-6.471 1.651l-.266.128v13.625l.623-.211a23.32 23.32 0 0 1 1.731-.513 21.155 21.155 0 0 1 4.982-.662v1.79a15.56 15.56 0 0 0-.655.019h-.051a19.948 19.948 0 0 0-3.833.588c-1.59.398-3.124.996-4.566 1.779V2.53A18.3 18.3 0 0 1 8.959.582 18.343 18.343 0 0 1 13.474 0h.263c.314.008.621.022.909.044.759.053 1.511.173 2.249.358v1.762a13.947 13.947 0 0 0-2.179-.329l-.045-.004c-.152-.013-.304-.026-.446-.026zm3.101 1.801c.391.03.796.044 1.205.044a19.352 19.352 0 0 0 4.747-.609c1.589-.4 3.123-.998 4.564-1.781v17.163a18.313 18.313 0 0 1-4.792 1.948 18.486 18.486 0 0 1-4.515.581 13.778 13.778 0 0 1-3.425-.404V3.274c.265.061.537.117.814.164.455.077.934.133 1.401.167zm8.735.133-.623.21c-.573.192-1.15.365-1.731.518a21.098 21.098 0 0 1-5.173.663c-.406 0-.78-.011-1.141-.034l-.497-.033v14.017l.427.038c.395.034.803.052 1.214.052a16.573 16.573 0 0 0 4.074-.527 17.107 17.107 0 0 0 3.184-1.144l.266-.128V3.742zM5.377 25.977a.912.912 0 0 0-.693-.28 1.034 1.034 0 0 0-.4.075.91.91 0 0 0-.512.518 1.023 1.023 0 0 0-.072.387v2.335c-.006.165.026.328.092.479.055.12.135.226.234.313a.815.815 0 0 0 .321.166c.114.032.231.048.349.049a.972.972 0 0 0 .892-.61.951.951 0 0 0 .075-.372v-.261h-.61v.208a.528.528 0 0 1-.036.208.359.359 0 0 1-.089.131.365.365 0 0 1-.128.067.425.425 0 0 1-.128.022.314.314 0 0 1-.286-.125.548.548 0 0 1-.081-.313v-2.177a.738.738 0 0 1 .075-.349.31.31 0 0 1 .299-.141.33.33 0 0 1 .272.131c.068.09.104.2.101.313v.202h.604v-.238a1.093 1.093 0 0 0-.279-.737zM9.002 25.95a1.051 1.051 0 0 0-1.38 0 .961.961 0 0 0-.237.327 1.099 1.099 0 0 0-.089.452v2.239a1.08 1.08 0 0 0 .089.459c.055.12.136.227.237.313a.94.94 0 0 0 .322.197 1.028 1.028 0 0 0 .728 0c.121-.044.233-.111.33-.197a.948.948 0 0 0 .23-.313 1.08 1.08 0 0 0 .089-.459v-2.239a1.08 1.08 0 0 0-.089-.452 1.015 1.015 0 0 0-.23-.327zm-.284 3.019a.405.405 0 0 1-.121.324.445.445 0 0 1-.574 0 .397.397 0 0 1-.121-.324V26.73a.405.405 0 0 1 .121-.324.445.445 0 0 1 .574 0 .397.397 0 0 1 .121.324v2.239zM13.764 29.969V25.73h-.587l-.771 2.244h-.011l-.777-2.244h-.581v4.239h.606V27.39h.011l.593 1.823h.302l.598-1.823h.011v2.579h.606zM17.205 26.027a.84.84 0 0 0-.343-.232 1.363 1.363 0 0 0-.439-.066h-.9v4.239h.604v-1.656h.311c.189.009.376-.031.545-.116a.882.882 0 0 0 .332-.324 1.02 1.02 0 0 0 .139-.369c.024-.16.035-.321.033-.482a2.421 2.421 0 0 0-.059-.606.898.898 0 0 0-.223-.39zm-.311 1.292a.547.547 0 0 1-.056.221.346.346 0 0 1-.156.149.619.619 0 0 1-.285.053h-.276v-1.441h.311a.578.578 0 0 1 .272.053.349.349 0 0 1 .142.157.62.62 0 0 1 .053.236v.282c0 .099.006.2 0 .291h-.006zM20.066 25.73h-.495l-.934 4.239h.604l.177-.911h.823l.177.911h.604l-.957-4.239zm-.557 2.751.297-1.537h.011l.296 1.537h-.604zM23.969 28.284h-.011l-.912-2.554h-.581v4.239h.604V27.42h.012l.923 2.549h.568V25.73h-.604v2.554zM27.66 25.73l-.486 1.685h-.012l-.486-1.685h-.64l.83 2.447v1.792h.604v-1.792l.83-2.447h-.64zM3.692 31.166h.291v.817h.198v-.817h.29v-.167h-.778v.167zM6.14 30.998l-.381.984h.21l.081-.224h.392l.084.224h.215l-.391-.984h-.21zm-.032.595.134-.365.134.365h-.268zM8.559 31.62h.227v.127a.38.38 0 0 1-.233.083.244.244 0 0 1-.209-.093.411.411 0 0 1-.073-.257c0-.219.095-.329.283-.329a.206.206 0 0 1 .222.157l.195-.038c-.042-.192-.181-.289-.417-.289a.495.495 0 0 0-.344.127.494.494 0 0 0-.141.379.532.532 0 0 0 .126.369.477.477 0 0 0 .374.144.59.59 0 0 0 .417-.157v-.388h-.427v.166zM11.029 30.998h-.199v.984h.69v-.167h-.49v-.817zM13.118 30.998h-.199v.984h.199v-.984zM15.161 31.656l-.403-.657h-.193v.984h.185v-.643l.395.643h.198v-.984h-.182v.657zM17.007 31.549h.49v-.167h-.49v-.216h.528v-.167h-.727v.984h.747v-.167h-.548v-.266zM21.484 31.387h-.388v-.388h-.198v.984h.198v-.43h.388v.43h.198v-.984h-.198v.388zM23.342 31.549h.492v-.167h-.492v-.216h.529v-.167h-.727v.984h.746v-.167h-.548v-.266zM25.86 31.549c.171-.027.258-.117.258-.274a.236.236 0 0 0-.096-.219.553.553 0 0 0-.288-.058h-.417v.984h.198v-.412h.039a.261.261 0 0 1 .123.022.21.21 0 0 1 .07.072l.215.313h.237l-.12-.192a.685.685 0 0 0-.218-.236zm-.199-.136h-.146v-.247h.156a.526.526 0 0 1 .201.023c.014.013.026.029.033.046a.133.133 0 0 1-.005.111.128.128 0 0 1-.037.043.547.547 0 0 1-.201.023zM27.76 31.549h.49v-.167h-.49v-.216h.529v-.167h-.729v.984h.747v-.167h-.548v-.266z"/></symbol><symbol id="client3" viewBox="0 0 32 32"><path fill="#afb1b8" style="fill:var(--color3, #afb1b8)" d="M5.267 30.294a.098.098 0 0 1 .06.024l.155.148c-.12.12-.269.216-.436.281a1.701 1.701 0 0 1-.619.101 1.66 1.66 0 0 1-.582-.094 1.266 1.266 0 0 1-.438-.266 1.189 1.189 0 0 1-.283-.411 1.373 1.373 0 0 1-.099-.527 1.223 1.223 0 0 1 .408-.94c.132-.116.291-.207.465-.268.191-.064.394-.096.599-.094.19-.004.379.025.556.086.154.058.295.138.417.238l-.13.158a.132.132 0 0 1-.033.029.093.093 0 0 1-.052.012.119.119 0 0 1-.056-.017l-.07-.042-.097-.054a1.136 1.136 0 0 0-.306-.094 1.366 1.366 0 0 0-.231-.017 1.225 1.225 0 0 0-.43.071 1 1 0 0 0-.337.199.918.918 0 0 0-.219.317 1.042 1.042 0 0 0-.079.418c-.002.145.025.288.079.425.047.116.12.223.215.315a.878.878 0 0 0 .322.195c.127.046.262.068.399.067.079.001.158-.003.237-.013a.944.944 0 0 0 .512-.217.12.12 0 0 1 .074-.027zM9.745 29.549c.002.179-.033.356-.105.524-.063.152-.163.291-.292.407s-.286.207-.458.267c-.38.126-.799.126-1.179 0a1.36 1.36 0 0 1-.456-.268 1.192 1.192 0 0 1-.295-.411c-.14-.339-.14-.71 0-1.05.066-.153.166-.293.295-.413.13-.112.285-.2.456-.258.379-.128.8-.128 1.179 0 .172.061.328.152.458.268.128.117.227.255.293.406.072.169.107.347.105.527zm-.407 0a1.11 1.11 0 0 0-.074-.421.863.863 0 0 0-.535-.514 1.365 1.365 0 0 0-.857 0 .912.912 0 0 0-.328.199.836.836 0 0 0-.209.315 1.23 1.23 0 0 0 0 .842.86.86 0 0 0 .537.512c.276.09.581.09.857 0a.922.922 0 0 0 .328-.197.872.872 0 0 0 .207-.315 1.11 1.11 0 0 0 .074-.421zM12.801 29.991l.041.094c.015-.034.029-.064.045-.094.015-.032.032-.063.05-.093l.991-1.565c.019-.027.037-.044.056-.049a.246.246 0 0 1 .081-.008h.293v2.545h-.347v-1.95a.646.646 0 0 1 0-.088l-.997 1.587c-.013.024-.033.044-.058.058s-.055.021-.085.021h-.056c-.03 0-.06-.007-.085-.021s-.046-.034-.058-.058l-1.026-1.597v2.043h-.335v-2.54h.293a.272.272 0 0 1 .081.008c.024.01.043.028.054.049l1.012 1.567c.02.029.037.059.05.091zM16.529 29.864v.953h-.388v-2.542h.865c.163-.003.326.016.483.056a.97.97 0 0 1 .341.158.655.655 0 0 1 .194.249.766.766 0 0 1 .066.325.727.727 0 0 1-.072.325.698.698 0 0 1-.209.254.981.981 0 0 1-.343.168 1.63 1.63 0 0 1-.467.059l-.469-.007zm0-.272h.469a1.08 1.08 0 0 0 .3-.039.645.645 0 0 0 .217-.11.487.487 0 0 0 .179-.382c.004-.071-.009-.141-.039-.207s-.076-.125-.136-.174a.834.834 0 0 0-.522-.136h-.469v1.048zM21.741 30.821h-.306a.139.139 0 0 1-.085-.024.157.157 0 0 1-.05-.059l-.264-.615h-1.324l-.273.615a.14.14 0 0 1-.049.057.148.148 0 0 1-.087.025h-.306l1.163-2.546h.403l1.179 2.546zm-1.92-.945h1.093l-.461-1.036a1.755 1.755 0 0 1-.087-.239l-.045.133c-.014.04-.029.078-.043.108l-.458 1.034zM23.416 28.288a.174.174 0 0 1 .058.045l1.697 1.919v-1.976h.347v2.545h-.194a.174.174 0 0 1-.141-.062l-1.695-1.917a.646.646 0 0 1 0 .088v1.891h-.347v-2.545h.206a.167.167 0 0 1 .07.012zM28.375 29.809v1.011h-.388v-1.011l-1.072-1.533h.347a.133.133 0 0 1 .083.022.216.216 0 0 1 .052.057l.671.989c.027.042.05.081.07.118s.035.072.049.108l.05-.11a.888.888 0 0 1 .066-.116l.661-.996a.284.284 0 0 1 .05-.054.128.128 0 0 1 .083-.025h.351l-1.074 1.54zM12.609 24.004c.169.019.339.034.512.047 2.616-1.017 4.829-2.681 6.363-4.785s2.319-4.553 2.259-7.043L18.86 9.718c.586 2.651.312 5.39-.792 7.913s-2.994 4.729-5.459 6.372z"/><path fill="#afb1b8" style="fill:var(--color3, #afb1b8)" d="m11.579 23.888.078.013c2.634-1.637 4.642-3.923 5.765-6.562s1.308-5.51.533-8.242l-4.106-3.568c1.661 2.933 2.33 6.215 1.928 9.464s-1.857 6.334-4.196 8.893zM25.506 15.165c-.698 2.735-2.392 5.202-4.832 7.035a15.392 15.392 0 0 1-2.296 1.432c1.986-.507 3.812-1.404 5.337-2.621s2.707-2.723 3.456-4.4l-1.665-1.445z"/><path fill="#afb1b8" style="fill:var(--color3, #afb1b8)" d="m24.853 14.763-2.371-2.06c-.045 2.349-.814 4.644-2.226 6.648s-3.416 3.642-5.803 4.745h.012c.532 0 1.064-.028 1.592-.083 2.231-.791 4.202-2.05 5.737-3.664s2.586-3.533 3.06-5.586zM11.923 4.026 9.094 1.565c-2.529.849-4.704 2.342-6.24 4.282S.492 10.086.484 12.442c.009 2.603 1.018 5.128 2.865 7.177s4.429 3.504 7.335 4.135c2.594-2.746 4.113-6.14 4.336-9.688s-.862-7.065-3.097-10.04zM31.388 14.384c-.01-3.088-1.427-6.047-3.94-8.23s-5.919-3.414-9.473-3.423a15.073 15.073 0 0 0-4.803.777l17.32 15.048c.593-1.33.897-2.744.896-4.171z"/></symbol><symbol id="client4" viewBox="0 0 32 32"><path fill="#afb1b8" style="fill:var(--color3, #afb1b8);stroke:var(--color3, #afb1b8)" stroke="#afb1b8" stroke-width=".377" d="M4.948 13.215h.001c.82 0 1.446.586 1.446 1.264v.001c0 .678-.626 1.264-1.446 1.264h-.001c-.82 0-1.446-.586-1.446-1.264v-.001c0-.678.626-1.264 1.446-1.264zM7.932 18.471l-.193.026v-5.933c.003-1.057.476-2.076 1.326-2.831s2.007-1.184 3.219-1.186c1.211.003 2.367.431 3.217 1.187s1.323 1.773 1.325 2.83v.001c0 1.237-.56 2.225-1.419 3.019-.862.797-2.02 1.392-3.191 1.83-1.17.438-2.341.715-3.222.883-.44.084-.806.14-1.062.176zM4.342 20.724c0-.194-.065-.381-.183-.538s-.283-.276-.472-.346a1.14 1.14 0 0 0-1.13.202.934.934 0 0 0-.295.492c-.042.19-.02.386.062.563s.22.324.392.426c.118.07.25.117.387.14v.018h.188c.135 0 .27-.024.396-.07s.242-.115.34-.203c.098-.088.178-.193.232-.311s.083-.245.082-.373zm0 0-.188.001h.188zm1.985-4.053.069-.009v4.063c-.002.718-.324 1.411-.904 1.926s-1.371.81-2.2.812c-.829-.002-1.62-.296-2.2-.812s-.901-1.208-.903-1.926c0-.841.38-1.514.968-2.058.592-.547 1.39-.958 2.201-1.262.81-.303 1.622-.495 2.232-.612.305-.058.559-.097.736-.122z"/><path fill="#afb1b8" style="fill:var(--color3, #afb1b8)" d="M9.31 20.119v1.606h-.331v-1.606h.331zm.64.686v.258h-.73v-.258h.73zm.077-.686v.259H9.22v-.259h.807zm1.511.766v.076c0 .122-.017.232-.05.329s-.08.18-.14.248c-.06.068-.132.119-.216.155s-.175.054-.277.054c-.101 0-.193-.018-.277-.054s-.155-.088-.216-.155c-.061-.068-.108-.151-.142-.248s-.05-.207-.05-.329v-.076c0-.123.017-.232.05-.329s.08-.18.14-.248c.061-.068.133-.121.216-.157s.176-.054.277-.054c.101 0 .194.018.277.054s.156.088.216.157c.061.068.108.151.141.248s.051.206.051.329zm-.334.076v-.078c0-.085-.008-.16-.023-.225s-.038-.119-.068-.163a.296.296 0 0 0-.259-.133.293.293 0 0 0-.258.133.485.485 0 0 0-.067.163c-.015.065-.023.14-.023.225v.078c0 .085.008.16.023.225s.038.119.068.164a.299.299 0 0 0 .259.134.29.29 0 0 0 .258-.134c.029-.045.052-.1.067-.164s.023-.14.023-.225zm1.408.344c0-.029-.004-.054-.013-.077s-.024-.045-.046-.064c-.023-.02-.055-.039-.096-.058s-.095-.039-.16-.06c-.073-.024-.142-.05-.207-.079s-.122-.064-.172-.103c-.049-.04-.088-.086-.117-.138s-.042-.113-.042-.182c0-.067.015-.128.044-.182s.071-.102.124-.141c.053-.04.115-.07.187-.092s.153-.032.239-.032c.118 0 .222.021.31.064s.157.101.205.175a.452.452 0 0 1 .074.255h-.329c0-.047-.01-.088-.03-.124s-.049-.064-.088-.085a.31.31 0 0 0-.148-.031c-.057 0-.105.009-.143.026s-.067.04-.086.069a.173.173 0 0 0-.029.097c0 .027.007.052.02.074s.035.043.062.062c.027.019.061.037.1.054s.086.033.138.05c.088.026.164.056.23.089s.123.07.168.111a.4.4 0 0 1 .135.318c0 .07-.014.132-.041.188s-.067.102-.118.14c-.051.038-.113.067-.184.087s-.151.03-.239.03c-.079 0-.158-.01-.235-.031s-.147-.053-.211-.096c-.063-.043-.113-.097-.15-.163s-.056-.145-.056-.235h.332c0 .05.008.092.023.127s.037.063.065.084c.029.021.063.037.101.046s.083.014.13.014c.057 0 .104-.008.141-.024s.065-.039.083-.067a.18.18 0 0 0 .028-.097zm1.274-1.186v1.606h-.33v-1.606h.33zm.494 0v.259h-1.31v-.259h1.31zm1.267 1.348v.258h-.855v-.258h.855zm-.747-1.348v1.606h-.331v-1.606h.331zm.635.654v.251h-.743v-.251h.743zm.11-.654v.259h-.854v-.259h.854zm.195 0h.599c.123 0 .228.018.317.055s.157.091.205.163a.47.47 0 0 1 .072.266c0 .086-.015.16-.044.222s-.07.112-.122.153a.643.643 0 0 1-.184.097l-.105.055h-.521l-.002-.258h.387c.058 0 .106-.01.145-.031s.067-.049.086-.086a.263.263 0 0 0 .03-.128c0-.051-.01-.096-.029-.133s-.048-.066-.087-.086a.32.32 0 0 0-.147-.03h-.268v1.347h-.331v-1.606zm.897 1.606-.366-.716.35-.002.371.703v.015h-.354zm1.737-.572h-.409v-.258h.409c.063 0 .115-.01.154-.031s.069-.051.087-.088a.314.314 0 0 0 0-.26c-.018-.041-.047-.074-.087-.099s-.091-.038-.154-.038h-.294v1.347h-.331V20.12h.625c.126 0 .233.023.323.068a.488.488 0 0 1 .279.458c0 .104-.024.193-.072.269s-.117.134-.207.175a.772.772 0 0 1-.323.062zm1.909.314v.258h-.855v-.258h.855zm-.747-1.348v1.606h-.331v-1.606h.331zm.635.654v.251h-.743v-.251h.743zm.11-.654v.259h-.854v-.259h.854zm.935 0v1.606h-.33v-1.606h.33zm.494 0v.259H20.5v-.259h1.31zm1.266 1.348v.258h-.855v-.258h.855zm-.747-1.348v1.606h-.331v-1.606h.331zm.636.654v.251h-.743v-.251h.743zm.11-.654v.259h-.854v-.259h.854zm.194 0h.599c.123 0 .228.018.317.055s.157.091.205.163a.47.47 0 0 1 .072.266c0 .086-.015.16-.044.222s-.07.112-.122.153a.643.643 0 0 1-.184.097l-.105.055h-.521l-.002-.258h.387c.058 0 .106-.01.145-.031s.067-.049.086-.086a.263.263 0 0 0 .03-.128c0-.051-.01-.096-.029-.133s-.048-.066-.087-.086a.32.32 0 0 0-.147-.03h-.268v1.347h-.331v-1.606zm.898 1.606-.366-.716.35-.002.371.703v.015h-.354zm1.385-.42c0-.029-.004-.054-.013-.077s-.024-.045-.046-.064c-.023-.02-.055-.039-.096-.058s-.095-.039-.16-.06c-.073-.024-.142-.05-.207-.079s-.122-.064-.172-.103c-.049-.04-.088-.086-.117-.138s-.042-.113-.042-.182c0-.067.015-.128.044-.182s.071-.102.124-.141c.053-.04.115-.07.187-.092s.153-.032.239-.032c.118 0 .222.021.31.064s.157.101.205.175a.452.452 0 0 1 .074.255h-.329c0-.047-.01-.088-.03-.124s-.049-.064-.088-.085a.31.31 0 0 0-.148-.031c-.057 0-.105.009-.143.026s-.067.04-.086.069a.173.173 0 0 0-.029.097c0 .027.007.052.02.074s.035.043.062.062c.027.019.061.037.1.054s.086.033.138.05c.087.026.164.056.23.089s.123.07.168.111a.4.4 0 0 1 .135.318c0 .07-.014.132-.041.188s-.067.102-.118.14c-.051.038-.113.067-.184.087s-.151.03-.239.03c-.079 0-.158-.01-.235-.031s-.147-.053-.211-.096c-.063-.043-.113-.097-.15-.163s-.056-.145-.056-.235h.332c0 .05.008.092.023.127s.037.063.065.084c.029.021.063.037.102.046s.083.014.13.014c.057 0 .104-.008.141-.024s.065-.039.083-.067a.18.18 0 0 0 .028-.097z"/><path fill="#afb1b8" style="fill:var(--color3, #afb1b8)" d="M9.31 20.119h.376v-.376H9.31v.376zm0 1.606v.376h.376v-.376H9.31zm-.331 0h-.376v.376h.376v-.376zm0-1.606v-.376h-.376v.376h.376zm.971.686h.376v-.376H9.95v.376zm0 .258v.376h.376v-.376H9.95zm-.73 0h-.376v.376h.376v-.376zm0-.258v-.376h-.376v.376h.376zm.807-.686h.376v-.376h-.376v.376zm0 .259v.376h.376v-.376h-.376zm-.807 0h-.376v.376h.376v-.376zm0-.259v-.376h-.376v.376h.376zm-.286 0v1.606h.753v-1.606h-.753zm.376 1.229h-.331v.753h.331v-.753zm.046.377v-1.606h-.753v1.606h.753zm-.377-1.229h.331v-.753h-.331v.753zm.594.309v.258h.753v-.258h-.753zm.377-.118h-.73v.753h.73v-.753zm-.354.376v-.258h-.753v.258h.753zm-.376.119h.73v-.753h-.73v.753zm.431-1.063v.259h.753v-.259h-.753zm.376-.117H9.22v.753h.807v-.753zm-.431.376v-.259h-.753v.259h.753zm-.376.118h.807v-.753H9.22v.753zm2.128 1.041.281.25.001-.002-.282-.249zm-.216.156-.149-.346h-.001l.15.345zm-.553 0-.15.345h.001l.149-.346zm-.217-.156-.281.251.001.002.28-.252zm-.142-.248-.356.122.001.002.355-.124zm0-.733.356.122v-.001l-.356-.122zm.14-.248-.281-.251-.001.002.282.249zm.216-.157-.149-.346h-.001l.15.345zm.554 0-.15.345h.001l.149-.346zm.216.157-.282.249.002.002.281-.251zm.141.248-.356.122.001.003.355-.125zm-.485-.161-.175.333.005.002.171-.336zm-.298 0 .173.334.002-.001-.175-.333zm-.109.099-.311-.212-.002.004.313.209zm-.067.692-.366.086v.001l.366-.087zm.068.164-.312.21.002.002.311-.212zm.518 0 .313.209.002-.002-.315-.206zm.067-.164.366.087v-.001l-.366-.086zm-.019-.301v.076h.753v-.076h-.753zm0 .076a.657.657 0 0 1-.029.207l.713.243a1.38 1.38 0 0 0 .07-.45h-.753zm-.03.207a.361.361 0 0 1-.066.121l.565.498a1.09 1.09 0 0 0 .214-.376l-.713-.243zm-.065.119a.223.223 0 0 1-.084.06l.297.692a.999.999 0 0 0 .349-.251l-.562-.501zm-.085.061a.316.316 0 0 1-.127.023v.753c.147 0 .291-.026.427-.085l-.3-.691zm-.127.023a.333.333 0 0 1-.128-.023l-.297.692c.135.058.279.085.426.085v-.753zm-.127-.023a.237.237 0 0 1-.086-.062l-.559.504c.097.107.213.191.346.249l.3-.691zm-.085-.061a.36.36 0 0 1-.068-.121l-.711.248c.048.138.119.265.217.375l.562-.501zm-.067-.119a.626.626 0 0 1-.03-.207h-.753c0 .156.021.307.07.45l.713-.243zm-.029-.207v-.076h-.753v.076h.753zm0-.076c0-.09.012-.157.029-.206l-.712-.245c-.049.143-.07.295-.07.451h.753zm.029-.208a.345.345 0 0 1 .066-.121l-.565-.498a1.09 1.09 0 0 0-.214.376l.713.243zm.065-.119a.242.242 0 0 1 .085-.062l-.3-.691a.995.995 0 0 0-.347.251l.562.501zm.084-.061a.315.315 0 0 1 .128-.023v-.753c-.147 0-.29.026-.425.085l.297.692zm.128-.023c.056 0 .097.01.127.023l.3-.691a1.064 1.064 0 0 0-.427-.085v.753zm.128.023a.213.213 0 0 1 .082.06l.565-.498a.977.977 0 0 0-.35-.253l-.297.692zm.084.061a.342.342 0 0 1 .066.119l.713-.243a1.07 1.07 0 0 0-.217-.377l-.562.501zm.067.123a.623.623 0 0 1 .029.204h.753c0-.157-.022-.31-.072-.453l-.71.25zm.448.28v-.078h-.753v.078h.753zm0-.079c0-.107-.01-.212-.033-.312l-.732.175a.605.605 0 0 1 .013.138h.753zm-.033-.312a.86.86 0 0 0-.124-.288l-.622.425c-.001-.002.006.008.013.038l.732-.175zm-.124-.288a.665.665 0 0 0-.25-.222l-.341.671c-.008-.004-.015-.009-.021-.014s-.008-.009-.009-.01l.622-.425zm-.246-.22a.692.692 0 0 0-.324-.077v.753l-.005-.001a.096.096 0 0 1-.021-.008l.35-.666zm-.324-.078a.692.692 0 0 0-.324.077l.35.666-.021.008-.005.001v-.753zm-.322.076a.679.679 0 0 0-.247.221l.622.425-.008.008a.11.11 0 0 1-.021.014l-.346-.669zm-.249.225a.876.876 0 0 0-.12.285l.732.175c.008-.032.015-.043.014-.042l-.627-.418zm-.12.285c-.024.1-.033.205-.033.312h.753c0-.064.006-.108.013-.138l-.732-.175zm-.034.312v.078h.753v-.078h-.753zm0 .079c0 .107.01.212.033.311l.733-.173a.637.637 0 0 1-.013-.139h-.753zm.034.312a.891.891 0 0 0 .122.287l.625-.42-.005-.009a.208.208 0 0 1-.01-.032l-.732.175zm.123.289c.062.09.143.167.246.221l.35-.667a.083.083 0 0 1 .025.021l-.622.425zm.246.222a.692.692 0 0 0 .324.077v-.753l.005.001a.096.096 0 0 1 .021.008l-.35.667zm.324.077a.692.692 0 0 0 .324-.077l-.35-.667.021-.008.005-.001v.753zm.324-.077a.663.663 0 0 0 .247-.225l-.627-.418.009-.01a.078.078 0 0 1 .02-.014l.35.667zm.249-.228a.918.918 0 0 0 .119-.283l-.732-.175a.153.153 0 0 1-.016.045l.63.413zm.119-.284c.024-.1.033-.205.033-.311h-.753a.637.637 0 0 1-.013.139l.733.173zm1.052-.044-.356.122.002.007.003.007.351-.136zm-.046-.064-.247.284.003.002.003.002.242-.288zm-.256-.118-.116.358.003.001.113-.359zm-.207-.08-.156.343.001.001.154-.343zm-.172-.102-.236.293.005.004.231-.297zm-.117-.138-.332.178.002.004.33-.181zm.002-.364.331.179.001-.002-.332-.177zm.123-.141.223.303.003-.002-.226-.301zm.188-.092-.106-.361h-.001l.107.361zm.754.207-.315.206.001.002.314-.208zm.074.255v.376h.376v-.376h-.376zm-.328 0h-.376v.376h.376v-.376zm-.03-.123-.333.176.002.004.002.004.328-.185zm-.089-.085-.176.333.003.001.173-.334zm-.291-.005.152.344.003-.001.003-.001-.158-.342zm-.086.07.313.209.002-.004-.316-.205zm-.009.171-.323.194.002.004.002.004.318-.201zm.3.165-.111.36.002.001.109-.36zm.231.089-.168.337.001.001.167-.337zm-.514.843-.1.363.003.001.097-.364zm-.211-.096-.212.311.002.001.211-.312zm-.206-.398v-.376h-.376v.376h.376zm.332 0h.376v-.376h-.376v.376zm.088.211-.228.299.004.003.225-.302zm.102.046-.09.366h.002l.088-.366zm.271-.01-.149-.346-.003.001.152.345zm.083-.067-.317-.203-.004.006.321.197zm.404-.097c0-.067-.01-.14-.039-.213l-.702.272a.156.156 0 0 1-.012-.059h.753zm-.034-.2a.522.522 0 0 0-.16-.23l-.484.577a.23.23 0 0 1-.068-.102l.712-.245zm-.155-.225a.753.753 0 0 0-.185-.116l-.317.683.012.006.006.003-.001-.001-.009-.007.495-.568zm-.185-.116a1.625 1.625 0 0 0-.205-.077l-.226.718a.947.947 0 0 1 .114.042l.317-.683zm-.202-.077a1.57 1.57 0 0 1-.169-.065l-.309.687c.079.035.161.067.246.094l.232-.716zm-.168-.064a.476.476 0 0 1-.096-.057l-.463.594c.076.059.159.108.248.148l.312-.685zm-.091-.053a.08.08 0 0 1-.023-.026l-.66.363a.85.85 0 0 0 .211.25l.473-.586zm-.021-.022.003.006.001.003-.001-.013h-.753c0 .121.025.244.086.36l.664-.355zm.002-.004v-.007l-.001.002-.001.002-.662-.358a.748.748 0 0 0-.089.361h.753zm0-.005c.002-.003.004-.008.015-.015l-.446-.606a.8.8 0 0 0-.233.267l.664.354zm.017-.017a.255.255 0 0 1 .068-.032l-.214-.722a.966.966 0 0 0-.307.151l.452.602zm.068-.032a.475.475 0 0 1 .134-.017v-.753c-.118 0-.233.014-.345.047l.212.723zm.133-.016c.073 0 .118.013.146.026l.328-.678a1.08 1.08 0 0 0-.474-.102v.753zm.146.026a.124.124 0 0 1 .054.042l.63-.412a.874.874 0 0 0-.356-.308l-.328.678zm.056.044c.005.008.011.02.011.047h.753a.822.822 0 0 0-.137-.463l-.627.416zm.387-.329h-.329v.753h.329v-.753zm.048.376a.627.627 0 0 0-.078-.308l-.656.369a.132.132 0 0 1-.019-.061h.753zm-.074-.3a.58.58 0 0 0-.248-.243l-.347.668a.165.165 0 0 1-.071-.073l.665-.353zm-.245-.241a.683.683 0 0 0-.324-.075v.753h.005c-.004-.001-.017-.004-.033-.012l.352-.666zm-.323-.075a.717.717 0 0 0-.301.061l.316.684c-.013.006-.023.008-.025.009h.011v-.753zm-.296.059a.566.566 0 0 0-.249.209l.631.41a.194.194 0 0 1-.077.07l-.305-.689zm-.247.205a.549.549 0 0 0-.092.306h.753a.205.205 0 0 1-.034.111l-.627-.418zm-.092.306c0 .091.023.184.073.268l.646-.387c.024.04.034.083.034.12h-.753zm.078.275a.596.596 0 0 0 .163.168l.433-.616a.155.155 0 0 1 .04.045l-.636.403zm.164.168a.901.901 0 0 0 .169.092l.295-.693-.024-.011-.008-.004-.433.616zm.169.093c.054.023.113.044.174.063l.223-.719c-.043-.013-.076-.026-.102-.036l-.295.693zm.176.063c.072.022.128.044.171.066l.337-.673a1.784 1.784 0 0 0-.29-.113l-.218.721zm.173.067a.383.383 0 0 1 .08.051l.509-.555a1.099 1.099 0 0 0-.255-.172l-.334.675zm.08.051c.009.008.011.012.011.013l.69-.301a.78.78 0 0 0-.192-.267l-.509.555zm.011.014c-.001-.002.003.004.003.027h.753a.808.808 0 0 0-.066-.328l-.69.301zm.003.026c0 .01-.001.017-.002.019v.002l.675.333a.795.795 0 0 0 .08-.354h-.753zm-.002.021-.001.001-.004.003.449.604a.765.765 0 0 0 .231-.276l-.675-.333zm-.005.005a.188.188 0 0 1-.061.027l.202.725a.923.923 0 0 0 .308-.148l-.449-.604zm-.061.027a.526.526 0 0 1-.138.016v.753c.116 0 .23-.013.34-.044l-.202-.725zm-.138.016a.545.545 0 0 1-.138-.018l-.194.728c.109.029.22.044.332.044v-.753zm-.135-.018a.319.319 0 0 1-.1-.045l-.421.624c.099.067.206.115.321.147l.2-.726zm-.099-.044a.107.107 0 0 1-.035-.038l-.655.371a.873.873 0 0 0 .265.289l.424-.622zm-.034-.038-.004-.01a.146.146 0 0 1-.004-.039h-.753c0 .143.03.288.105.421l.655-.371zm-.384.328h.332v-.753h-.332v.753zm-.044-.377c0 .087.013.185.056.28l.687-.307c.006.014.008.024.009.028v-.002h-.753zm.055.28a.603.603 0 0 0 .18.23l.457-.599c.026.02.042.044.05.062l-.687.307zm.185.233c.074.055.155.09.236.11l.179-.731a.097.097 0 0 1 .033.017l-.449.604zm.238.11a.96.96 0 0 0 .218.025v-.753a.163.163 0 0 1-.042-.004l-.176.732zm.218.025a.73.73 0 0 0 .293-.056l-.303-.689c.014-.006.024-.008.025-.008l-.015.001v.753zm.29-.055a.546.546 0 0 0 .254-.216l-.641-.395a.209.209 0 0 1 .089-.081l.298.691zm.251-.21a.55.55 0 0 0 .087-.3h-.753c0-.032.009-.071.032-.106l.634.406zm.984-1.486h.376v-.376h-.376v.376zm0 1.606v.376h.376v-.376h-.376zm-.329 0h-.376v.376h.376v-.376zm0-1.606v-.376h-.376v.376h.376zm.823 0h.376v-.376h-.376v.376zm0 .259v.376h.376v-.376h-.376zm-1.31 0h-.376v.376h.376v-.376zm0-.259v-.376h-.376v.376h.376zm.44 0v1.606h.753v-1.606h-.753zm.376 1.229h-.33v.753h.33v-.753zm.047.377v-1.606h-.753v1.606h.753zm-.376-1.229h.33v-.753h-.33v.753zm.447-.377v.259h.753v-.259h-.753zm.376-.117h-1.31v.753h1.31v-.753zm-.933.376v-.259h-.753v.259h.753zm-.377.118h1.31v-.753h-1.31v.753zm2.577.971h.376v-.376h-.376v.376zm0 .258v.376h.376v-.376h-.376zm-.855 0h-.376v.376h.376v-.376zm0-.258v-.376h-.376v.376h.376zm.108-1.348h.376v-.376H14.9v.376zm0 1.606v.376h.376v-.376H14.9zm-.331 0h-.376v.376h.376v-.376zm0-1.606v-.376h-.376v.376h.376zm.966.654h.376v-.376h-.376v.376zm0 .252v.376h.376v-.376h-.376zm-.743 0h-.376v.376h.376v-.376zm0-.252v-.376h-.376v.376h.376zm.853-.654h.376v-.376h-.376v.376zm0 .259v.376h.376v-.376h-.376zm-.853 0h-.376v.376h.376v-.376zm0-.259v-.376h-.376v.376h.376zm.478 1.348v.258h.753v-.258h-.753zm.377-.119h-.855v.753h.855v-.753zm-.479.377v-.258h-.753v.258h.753zm-.376.118h.855v-.753h-.855v.753zm-.269-1.724v1.606h.753v-1.606h-.753zm.377 1.229h-.331v.753h.331v-.753zm.045.377v-1.606h-.753v1.606h.753zm-.376-1.229h.331v-.753h-.331v.753zm.59.277v.251h.753v-.251h-.753zm.376-.125h-.743v.753h.743v-.753zm-.367.377v-.251h-.753v.251h.753zm-.376.125h.743v-.753h-.743v.753zm.477-1.031v.259h.753v-.259h-.753zm.376-.117h-.854v.753h.854v-.753zm-.477.376v-.259h-.753v.259h.753zm-.376.118h.854v-.753h-.854v.753zm1.048-.377v-.376h-.376v.376h.376zm.915.055-.145.347h.001l.144-.348zm.233.651-.34-.162-.001.002.341.16zm-.123.153.231.298h.001l-.231-.297zm-.184.097-.122-.356-.027.009-.026.013.175.333zm-.105.055v.376h.093l.082-.043-.175-.333zm-.52 0-.376.003.003.373h.373v-.376zm-.002-.258v-.376h-.38l.003.38.376-.003zm.617-.117-.331-.179-.001.003-.001.003.334.174zm-.501-.377v-.376h-.376v.376h.376zm0 1.347v.376h.376v-.376h-.376zm-.33 0h-.376v.376h.376v-.376zm.897 0-.335.171.105.205h.23v-.376zm-.366-.716-.002-.376-.611.004.278.544.335-.171zm.35-.002.333-.176-.107-.202-.229.001.002.376zm.37.702h.376v-.093l-.043-.082-.333.176zm0 .016v.376h.376v-.376h-.376zm-1.251-1.229h.599v-.753h-.599v.753zm.598 0c.087 0 .14.013.172.026l.29-.695a1.182 1.182 0 0 0-.461-.084v.753zm.173.026c.028.011.033.021.035.023l.627-.416a.813.813 0 0 0-.375-.303l-.288.696zm.035.024.004.01a.184.184 0 0 1 .005.047h.753a.852.852 0 0 0-.134-.474l-.627.416zm.009.057c0 .022-.002.037-.004.046l-.004.013.68.324a.888.888 0 0 0 .081-.384h-.753zm-.008.062a.035.035 0 0 1-.013.016l.462.594a.798.798 0 0 0 .232-.29l-.681-.32zm-.012.016a.273.273 0 0 1-.076.039l.245.712c.105-.036.204-.087.292-.155l-.461-.595zm-.129.061-.105.055.351.666.105-.055-.351-.666zm.07.012h-.521v.753h.521v-.753zm-.144.373-.002-.258-.753.006.002.258.753-.006zm-.378.122h.387v-.753h-.387v.753zm.387 0c.1 0 .214-.017.323-.076l-.357-.663c.032-.017.05-.014.034-.014v.753zm.323-.076a.587.587 0 0 0 .242-.244l-.668-.347c.008-.015.018-.03.032-.043s.027-.022.038-.028l.357.663zm.238-.239a.641.641 0 0 0 .075-.307h-.753a.12.12 0 0 1 .015-.051l.663.358zm.075-.306a.657.657 0 0 0-.07-.304l-.671.342c-.013-.026-.012-.043-.012-.038h.753zm-.069-.305a.57.57 0 0 0-.252-.25l-.342.671a.185.185 0 0 1-.078-.078l.671-.342zm-.252-.25a.703.703 0 0 0-.318-.071v.753h.006a.17.17 0 0 1-.03-.011l.342-.671zm-.318-.071h-.268v.753h.268v-.753zm-.644.376v1.347h.753v-1.347h-.753zm.376.97h-.331v.753h.331v-.753zm.046.377v-1.606h-.753v1.606h.753zm.857-.172-.366-.716-.67.343.366.716.67-.343zm-.699-.167.35-.002-.005-.753-.35.002.005.753zm.014-.203.371.703.666-.351-.371-.703-.666.351zm.327.526v.015h.753v-.015h-.753zm.376-.361h-.354v.753h.354v-.753zm.974-.195h-.376v.376h.376v-.376zm0-.259v-.376h-.376v.376h.376zm.564-.03.173.334.005-.003-.178-.332zm-.449-.486v-.376h-.376v.376h.376zm0 1.347v.376h.376v-.376h-.376zm-.331 0h-.376v.376h.376v-.376zm0-1.606v-.376h-.376v.376h.376zm.949.068-.171.336.003.002.167-.337zm0 .904-.156-.343h-.001l.157.342zm-.324-.315h-.409v.753h.409v-.753zm-.032.377v-.258h-.753v.258h.753zm-.377.118h.409v-.753h-.409v.753zm.409 0c.1 0 .217-.016.328-.073l-.347-.668c.016-.009.028-.011.031-.012s0 0-.012 0v.753zm.333-.076a.573.573 0 0 0 .247-.254l-.676-.331c.009-.017.02-.034.035-.049s.028-.024.038-.029l.356.663zm.247-.254a.655.655 0 0 0 .066-.293h-.753l.002-.013a.275.275 0 0 1 .009-.026l.676.331zm.066-.293a.704.704 0 0 0-.06-.287l-.688.307-.004-.013-.001-.007h.753zm-.06-.286a.598.598 0 0 0-.23-.264l-.401.637c-.009-.006-.02-.014-.031-.027s-.019-.026-.025-.039l.688-.307zm-.231-.265a.657.657 0 0 0-.355-.095v.753c.016 0-.008.003-.046-.02l.401-.637zm-.355-.095h-.294v.753h.294v-.753zm-.67.376v1.347h.753v-1.347h-.753zm.376.97h-.331v.753h.331v-.753zm.046.377v-1.606h-.753v1.606h.753zm-.377-1.229h.625v-.753h-.625v.753zm.625 0c.081 0 .127.015.153.028l.341-.671a1.084 1.084 0 0 0-.494-.109v.753zm.156.029a.114.114 0 0 1 .052.043l.645-.388a.868.868 0 0 0-.363-.33l-.335.675zm.052.043a.142.142 0 0 1 .018.078h.753a.893.893 0 0 0-.126-.467l-.645.388zm.018.078c0 .044-.009.062-.014.068l.637.402a.874.874 0 0 0 .13-.47H18.7zm-.013.068c-.004.007-.014.019-.045.034l.312.685a.841.841 0 0 0 .37-.317l-.637-.402zm-.046.035a.409.409 0 0 1-.166.027v.753c.166 0 .33-.027.48-.096l-.314-.684zm1.742.718h.376v-.376h-.376v.376zm0 .258v.376h.376v-.376h-.376zm-.855 0h-.376v.376h.376v-.376zm0-.258v-.376h-.376v.376h.376zm.108-1.348h.376v-.376h-.376v.376zm0 1.606v.376h.376v-.376h-.376zm-.331 0h-.376v.376h.376v-.376zm0-1.606v-.376h-.376v.376h.376zm.966.654h.376v-.376h-.376v.376zm0 .252v.376h.376v-.376h-.376zm-.743 0h-.376v.376h.376v-.376zm0-.252v-.376h-.376v.376h.376zm.853-.654h.376v-.376h-.376v.376zm0 .259v.376h.376v-.376h-.376zm-.853 0h-.376v.376h.376v-.376zm0-.259v-.376h-.376v.376h.376zm.478 1.348v.258h.753v-.258h-.753zm.377-.119h-.855v.753h.855v-.753zm-.479.377v-.258h-.753v.258h.753zm-.376.118h.855v-.753h-.855v.753zm-.269-1.724v1.606h.753v-1.606h-.753zm.377 1.229h-.331v.753h.331v-.753zm.045.377v-1.606h-.753v1.606h.753zm-.376-1.229h.331v-.753h-.331v.753zm.59.277v.251h.753v-.251h-.753zm.376-.125h-.743v.753h.743v-.753zm-.367.377v-.251h-.753v.251h.753zm-.376.125h.743v-.753h-.743v.753zm.477-1.031v.259h.753v-.259h-.753zm.376-.117h-.854v.753h.854v-.753zm-.477.376v-.259h-.753v.259h.753zm-.376.118h.854v-.753h-.854v.753zm1.788-.377h.376v-.376h-.376v.376zm0 1.606v.376h.376v-.376h-.376zm-.33 0h-.376v.376h.376v-.376zm0-1.606v-.376h-.376v.376h.376zm.824 0h.376v-.376h-.376v.376zm0 .259v.376h.376v-.376h-.376zm-1.31 0h-.376v.376h.376v-.376zm0-.259v-.376h-.376v.376h.376zm.439 0v1.606h.753v-1.606h-.753zm.377 1.229h-.33v.753h.33v-.753zm.046.377v-1.606h-.753v1.606h.753zm-.376-1.229h.33v-.753h-.33v.753zm.447-.377v.259h.753v-.259h-.753zm.377-.117H20.5v.753h1.31v-.753zm-.934.376v-.259h-.753v.259h.753zm-.376.118h1.31v-.753H20.5v.753zm2.576.971h.376v-.376h-.376v.376zm0 .258v.376h.376v-.376h-.376zm-.855 0h-.376v.376h.376v-.376zm0-.258v-.376h-.376v.376h.376zm.108-1.348h.376v-.376h-.376v.376zm0 1.606v.376h.376v-.376h-.376zm-.331 0h-.376v.376h.376v-.376zm0-1.606v-.376h-.376v.376h.376zm.967.654h.376v-.376h-.376v.376zm0 .252v.376h.376v-.376h-.376zm-.744 0h-.376v.376h.376v-.376zm0-.252v-.376h-.376v.376h.376zm.854-.654h.376v-.376h-.376v.376zm0 .259v.376h.376v-.376h-.376zm-.854 0h-.376v.376h.376v-.376zm0-.259v-.376h-.376v.376h.376zm.479 1.348v.258h.753v-.258H22.7zm.376-.119h-.855v.753h.855v-.753zm-.478.377v-.258h-.753v.258h.753zm-.377.118h.855v-.753h-.855v.753zm-.268-1.724v1.606h.753v-1.606h-.753zm.376 1.229h-.331v.753h.331v-.753zm.046.377v-1.606h-.753v1.606h.753zm-.377-1.229h.331v-.753h-.331v.753zm.59.277v.251h.753v-.251h-.753zm.377-.125h-.743v.753h.743v-.753zm-.367.377v-.251h-.753v.251h.753zm-.377.125h.743v-.753h-.743v.753zm.477-1.031v.259h.753v-.259h-.753zm.377-.117h-.854v.753h.854v-.753zm-.477.376v-.259h-.753v.259h.753zm-.377.118h.854v-.753h-.854v.753zm1.048-.377v-.376h-.376v.376h.376zm.915.055-.145.347h.001l.144-.348zm.233.651-.34-.162-.001.002.341.16zm-.122.153.231.298h.001l-.231-.297zm-.184.097-.122-.356-.027.009-.026.013.175.333zm-.105.055v.376h.093l.082-.043-.175-.333zm-.521 0-.376.003.003.373h.373v-.376zm-.002-.258v-.376h-.38l.003.38.376-.003zm.618-.117-.331-.179-.001.003-.001.003.334.174zm-.501-.377v-.376h-.376v.376h.376zm0 1.347v.376h.376v-.376H23.6zm-.331 0h-.376v.376h.376v-.376zm.898 0-.335.171.105.205h.23v-.376zm-.366-.716-.002-.376-.611.004.278.544.335-.171zm.349-.002.333-.176-.107-.202-.229.001.002.376zm.371.702h.376v-.093l-.043-.082-.333.176zm0 .016v.376h.376v-.376h-.376zm-1.252-1.229h.599v-.753h-.599v.753zm.599 0c.087 0 .14.013.172.026l.29-.695a1.182 1.182 0 0 0-.461-.084v.753zm.173.026c.028.011.034.021.035.023l.627-.416a.813.813 0 0 0-.375-.303l-.288.696zm.035.024.004.01a.184.184 0 0 1 .005.047h.753a.852.852 0 0 0-.134-.474l-.627.416zm.009.057c0 .022-.002.037-.004.046l-.004.013.68.324a.888.888 0 0 0 .081-.384h-.753zm-.009.062a.035.035 0 0 1-.013.016l.462.594a.798.798 0 0 0 .232-.29l-.681-.32zm-.012.016a.273.273 0 0 1-.076.039l.245.712c.105-.036.204-.087.292-.155l-.461-.595zm-.129.061-.105.055.351.666.105-.055-.351-.666zm.071.012h-.521v.753h.521v-.753zm-.144.373-.002-.258-.753.006.002.258.753-.006zm-.379.122h.387v-.753h-.387v.753zm.387 0c.1 0 .214-.017.323-.076l-.357-.663c.032-.017.05-.014.034-.014v.753zm.323-.076a.587.587 0 0 0 .242-.244l-.668-.347c.008-.015.018-.03.032-.043s.027-.022.038-.028l.357.663zm.239-.239a.641.641 0 0 0 .075-.307h-.753a.12.12 0 0 1 .015-.051l.663.358zm.075-.306a.657.657 0 0 0-.07-.304l-.671.342c-.013-.026-.012-.043-.012-.038h.753zm-.07-.305a.57.57 0 0 0-.252-.25l-.342.671a.185.185 0 0 1-.078-.078l.671-.342zm-.251-.25a.703.703 0 0 0-.318-.071v.753h.006a.17.17 0 0 1-.03-.011l.342-.671zm-.318-.071H23.6v.753h.268v-.753zm-.645.376v1.347h.753v-1.347h-.753zm.377.97h-.331v.753h.331v-.753zm.045.377v-1.606h-.753v1.606h.753zm.857-.172-.366-.716-.67.343.366.716.67-.343zm-.699-.167.35-.002-.005-.753-.35.002.005.753zm.014-.203.371.703.666-.351-.371-.703-.666.351zm.327.526v.015h.753v-.015h-.753zm.377-.361h-.354v.753h.354v-.753zm1.018-.12-.356.122.002.007.003.007.351-.136zm-.046-.064-.247.284.003.002.003.002.242-.288zm-.256-.118-.116.358.003.001.113-.359zm-.208-.08-.156.343.001.001.154-.343zm-.172-.102-.236.293.005.004.231-.297zm-.117-.138-.332.178.002.004.33-.181zm.003-.364.331.179.001-.002-.332-.177zm.123-.141.223.303.003-.002-.226-.301zm.188-.092-.106-.361h-.001l.107.361zm.754.207-.315.206.001.002.314-.208zm.074.255v.376h.376v-.376h-.376zm-.329 0h-.376v.376h.376v-.376zm-.03-.123-.333.176.002.004.002.004.328-.185zm-.088-.085-.176.333.003.001.173-.334zm-.291-.005.152.344.003-.001.003-.001-.158-.342zm-.086.07.313.209.002-.004-.316-.205zm-.009.171-.323.194.002.004.002.004.318-.201zm.3.165-.111.36.002.001.109-.36zm.231.089-.168.337.001.001.167-.337zm-.514.843-.1.363.003.001.097-.364zm-.211-.096-.212.311.002.001.211-.312zm-.206-.398v-.376h-.376v.376h.376zm.332 0h.376v-.376h-.376v.376zm.088.211-.228.299.004.003.225-.302zm.102.046-.09.366h.002l.088-.366zm.271-.01-.149-.346-.003.001.152.345zm.083-.067-.317-.203-.004.006.321.197zm.404-.097c0-.067-.01-.14-.039-.213l-.702.272a.156.156 0 0 1-.012-.059h.753zm-.034-.2a.522.522 0 0 0-.16-.23l-.484.577a.23.23 0 0 1-.068-.102l.712-.245zm-.155-.225a.753.753 0 0 0-.185-.116l-.317.683.012.006.006.003-.001-.001-.009-.007.494-.568zm-.185-.116a1.569 1.569 0 0 0-.205-.077l-.226.718a.947.947 0 0 1 .114.042l.317-.683zm-.203-.077a1.57 1.57 0 0 1-.169-.065l-.309.687c.079.035.161.067.246.094l.232-.716zm-.167-.064a.476.476 0 0 1-.096-.057l-.463.594c.076.059.159.108.248.148l.312-.685zm-.092-.053a.08.08 0 0 1-.023-.026l-.66.363a.85.85 0 0 0 .211.25l.473-.586zm-.021-.022.003.006.001.003-.001-.013h-.753c0 .121.025.244.086.36l.664-.355zm.003-.004v-.007l-.001.002-.001.002-.662-.358a.76.76 0 0 0-.089.361h.753zm0-.005c.002-.003.004-.008.015-.015l-.446-.606a.8.8 0 0 0-.233.267l.664.354zm.017-.017a.255.255 0 0 1 .068-.032l-.214-.722a.966.966 0 0 0-.307.151l.452.602zm.067-.032a.475.475 0 0 1 .134-.017v-.753c-.118 0-.233.014-.345.047l.212.723zm.134-.016c.073 0 .118.013.146.026l.328-.678a1.08 1.08 0 0 0-.474-.102v.753zm.146.026a.124.124 0 0 1 .054.042l.63-.412a.874.874 0 0 0-.356-.308l-.328.678zm.055.044c.005.008.011.02.011.047h.753a.822.822 0 0 0-.137-.463l-.627.416zm.388-.329h-.329v.753h.329v-.753zm.048.376a.627.627 0 0 0-.078-.308l-.656.369a.132.132 0 0 1-.019-.061h.753zm-.074-.3a.584.584 0 0 0-.247-.243l-.347.668a.165.165 0 0 1-.071-.073l.665-.353zm-.245-.241a.683.683 0 0 0-.324-.075v.753h.005c-.004-.001-.017-.004-.033-.012l.352-.666zm-.324-.075a.717.717 0 0 0-.301.061l.316.684c-.013.006-.023.008-.025.009h.011v-.753zm-.295.059a.566.566 0 0 0-.249.209l.631.41a.194.194 0 0 1-.077.07l-.305-.689zm-.247.205a.549.549 0 0 0-.092.306h.753a.205.205 0 0 1-.034.111l-.627-.418zm-.092.306c0 .091.023.184.073.268l.646-.387c.024.04.034.083.034.12h-.753zm.078.275a.596.596 0 0 0 .163.168l.433-.616a.155.155 0 0 1 .04.045l-.636.403zm.163.168a.901.901 0 0 0 .169.092l.295-.693-.024-.011-.008-.004-.433.616zm.17.093c.054.023.113.044.174.063l.223-.719c-.043-.013-.076-.026-.102-.036l-.295.693zm.176.063c.072.022.128.044.171.066l.337-.673a1.749 1.749 0 0 0-.29-.113l-.218.721zm.173.067a.383.383 0 0 1 .08.051l.509-.555a1.099 1.099 0 0 0-.255-.172l-.334.675zm.08.051c.009.008.011.012.011.013l.69-.301a.78.78 0 0 0-.192-.267l-.509.555zm.011.014c-.001-.002.003.004.003.027h.753a.808.808 0 0 0-.066-.328l-.69.301zm.002.026c0 .01-.001.017-.002.019v.002l.675.333a.795.795 0 0 0 .08-.354h-.753zm-.001.021-.001.001-.004.003.449.604a.765.765 0 0 0 .231-.276l-.675-.333zm-.005.005a.188.188 0 0 1-.061.027l.202.725a.923.923 0 0 0 .308-.148l-.449-.604zm-.061.027a.526.526 0 0 1-.138.016v.753c.116 0 .23-.013.34-.044l-.202-.725zm-.138.016a.545.545 0 0 1-.138-.018l-.194.728c.109.029.22.044.332.044v-.753zm-.135-.018a.319.319 0 0 1-.1-.045l-.421.624c.099.067.206.115.321.147l.2-.726zm-.099-.044a.107.107 0 0 1-.035-.038l-.655.371a.873.873 0 0 0 .265.289l.424-.622zm-.034-.038-.004-.01a.146.146 0 0 1-.004-.039h-.753c0 .143.03.288.105.421l.655-.371zm-.384.328h.332v-.753h-.332v.753zm-.045-.377c0 .087.013.185.056.28l.687-.307c.006.014.008.024.009.028v-.002h-.753zm.056.28a.603.603 0 0 0 .18.23l.457-.599c.026.02.042.044.05.062l-.687.307zm.184.233c.074.055.155.09.236.11l.179-.731a.097.097 0 0 1 .033.017l-.449.604zm.238.11a.96.96 0 0 0 .218.025v-.753a.163.163 0 0 1-.042-.004l-.176.732zm.219.025a.73.73 0 0 0 .293-.056l-.303-.689c.014-.006.024-.008.025-.008l-.015.001v.753zm.29-.055a.546.546 0 0 0 .254-.216l-.641-.395a.209.209 0 0 1 .089-.081l.298.691zm.25-.21a.55.55 0 0 0 .087-.3h-.753c0-.032.009-.071.032-.106l.634.406z"/></symbol><symbol id="client5" viewBox="0 0 32 32"><path fill="#afb1b8" style="fill:var(--color3, #afb1b8)" d="M2.416 23.738c.124.14.19.316.186.496.006.118-.016.235-.066.344s-.126.205-.222.283c-.24.166-.538.248-.839.229H0v-3.145h1.445c.285-.017.568.056.8.209.093.072.167.162.216.264s.071.213.064.324a.69.69 0 0 1-.168.481.796.796 0 0 1-.44.246.856.856 0 0 1 .498.269zm-1.73-.474h.617c.14.009.28-.028.393-.104.046-.038.082-.086.105-.139s.032-.111.027-.168c.004-.057-.005-.114-.028-.167s-.058-.101-.103-.14a.635.635 0 0 0-.404-.106H.686v.825zm1.071 1.206c.05-.039.089-.089.114-.144s.036-.115.032-.175a.387.387 0 0 0-.15-.322.683.683 0 0 0-.419-.114H.686v.865h.656a.693.693 0 0 0 .414-.109zM5.369 25.09l-.804-1.229h-.302v1.229h-.691v-3.145h1.309c.33-.021.656.075.911.267.183.171.293.396.311.634s-.058.475-.214.667a1.096 1.096 0 0 1-.624.32l.856 1.257h-.752zm-1.105-1.657h.565c.393 0 .589-.159.589-.476.004-.065-.007-.13-.032-.191s-.063-.116-.113-.163a.659.659 0 0 0-.445-.128h-.572l.007.957zM9.148 24.457H7.77l-.243.633h-.725l1.265-3.11h.784l1.26 3.11h-.725l-.238-.633zm-.185-.476-.503-1.327-.503 1.327h1.007zM13.878 25.09h-.686l-1.539-2.139v2.139h-.685v-3.145h.685l1.539 2.151v-2.151h.686v3.145zM17.794 24.338a1.433 1.433 0 0 1-.621.555c-.299.138-.63.206-.965.198h-1.222v-3.145h1.222c.334-.008.665.058.965.194.263.121.479.312.621.548.141.256.215.538.215.825s-.074.569-.215.825zm-.785-.076c.196-.209.304-.475.304-.751s-.108-.542-.304-.75a1.264 1.264 0 0 0-.859-.267h-.476v2.036h.476c.314.018.622-.078.859-.267zM9.578 4.453s8.858 3.062 8.67 7.493v7.494s-8.851-3.063-8.666-7.494l-.003-7.493zM26.139 17.685a12.85 12.85 0 0 1 5.628-1.899V13.44c-2.327.821-4.302 2.311-5.628 4.245z"/><path fill="#afb1b8" style="fill:var(--color3, #afb1b8)" d="M25.134 18.392c1.369-2.524 3.743-4.472 6.633-5.443v-6.76S19.152 10.551 19.419 16.86v10.67s.562-.195 1.446-.561c0-.341 0-.685.04-1.031.261-2.929 1.782-5.644 4.228-7.546z"/><path fill="#afb1b8" style="fill:var(--color3, #afb1b8)" d="M23.934 22.356c.066-.74.214-1.472.441-2.185-1.523 1.643-2.446 3.682-2.638 5.83a9.502 9.502 0 0 0-.034.615c.716-.315 1.55-.708 2.426-1.171a10.093 10.093 0 0 1-.196-3.09zM24.436 22.394a9.664 9.664 0 0 0 .156 2.798c3.446-1.888 7.319-4.806 7.17-8.332v-.307c-2.462.252-4.766 1.238-6.557 2.805a9.782 9.782 0 0 0-.768 3.036z"/></symbol><symbol id="client6" viewBox="0 0 32 32"><path fill="#afb1b8" style="fill:var(--color3, #afb1b8)" d="M16.145 15.628a1.004 1.004 0 0 1-.206-.677v-.982c0-.301.068-.53.205-.686s.371-.234.703-.234c.312 0 .534.067.665.2.143.17.213.378.197.587v.231h-.559v-.234a1.177 1.177 0 0 0-.016-.229.22.22 0 0 0-.08-.136.322.322 0 0 0-.202-.053.342.342 0 0 0-.213.056.264.264 0 0 0-.093.15c-.016.08-.023.161-.022.243v1.191a.608.608 0 0 0 .072.335c.028.035.066.063.111.081s.095.024.144.019a.302.302 0 0 0 .198-.054.235.235 0 0 0 .083-.145c.013-.079.019-.159.017-.239v-.242h.559v.221a.897.897 0 0 1-.193.617c-.128.146-.347.219-.668.219s-.564-.078-.702-.24zM18.47 15.638c-.141-.153-.212-.375-.212-.67v-1.032c0-.292.071-.512.212-.662s.377-.224.708-.224c.328 0 .563.075.704.224s.213.37.213.662v1.032c0 .292-.072.515-.215.669s-.377.231-.702.231c-.325 0-.566-.078-.708-.23zm.968-.247a.567.567 0 0 0 .067-.306v-1.264a.566.566 0 0 0-.066-.3c-.028-.036-.068-.065-.114-.082s-.097-.024-.147-.018c-.05-.006-.101 0-.148.018s-.086.046-.115.082a.545.545 0 0 0-.067.3v1.27a.57.57 0 0 0 .067.306.363.363 0 0 0 .262.103c.049 0 .098-.009.144-.027s.085-.043.118-.076v-.006zM20.767 13.08h.601l.452 1.905.463-1.905h.585l.059 2.749h-.433l-.046-1.911-.446 1.911h-.347l-.463-1.918-.043 1.918h-.437l.054-2.749zM23.602 13.08h.937c.54 0 .81.26.81.781 0 .499-.284.747-.852.747h-.319v1.222H23.6l.003-2.749zm.8 1.175c.057.006.115.002.17-.013s.105-.04.148-.074a.443.443 0 0 0 .083-.31.846.846 0 0 0-.028-.25c-.008-.027-.023-.053-.043-.075s-.045-.041-.073-.055a.608.608 0 0 0-.258-.044h-.224v.822h.224zM26.182 13.08h.621l.637 2.749h-.539l-.126-.634h-.554l-.13.634h-.547l.637-2.749zm.531 1.797-.216-1.154-.216 1.154h.433zM27.955 13.08h.405l.775 1.568V13.08h.48v2.749h-.385l-.779-1.637v1.637h-.496l.001-2.749zM30.739 14.782l-.644-1.697h.542l.393 1.09.369-1.09h.531l-.636 1.697v1.048h-.555v-1.048zM17.038 17.032v.144h-.472v1.117h-.198v-1.117h-.474v-.144h1.144zM18.517 18.293h-.153a.066.066 0 0 1-.043-.012.059.059 0 0 1-.025-.029l-.136-.3h-.655l-.136.3a.08.08 0 0 1-.021.034.07.07 0 0 1-.043.012h-.153l.578-1.261h.201l.585 1.256zm-.958-.468h.546l-.231-.513a.993.993 0 0 1-.043-.119l-.022.067-.021.053-.229.512zM19.514 18.169a.99.99 0 0 0 .109 0 .75.75 0 0 0 .176-.038l.077-.031v-.284h-.231c-.006 0-.011 0-.017-.002s-.01-.004-.014-.008c-.004-.003-.007-.006-.009-.01s-.003-.008-.003-.013v-.097h.449v.483a.795.795 0 0 1-.244.103 1 1 0 0 1-.145.026 1.893 1.893 0 0 1-.169.008.862.862 0 0 1-.291-.047.703.703 0 0 1-.231-.132.612.612 0 0 1-.149-.2.627.627 0 0 1-.053-.262.576.576 0 0 1 .201-.464.7.7 0 0 1 .231-.131.98.98 0 0 1 .31-.047c.054 0 .108.004.161.011a.813.813 0 0 1 .254.082c.035.02.069.042.101.066l-.056.078c-.004.007-.011.013-.019.017s-.017.007-.026.007a.075.075 0 0 1-.036-.01.822.822 0 0 1-.057-.03.582.582 0 0 0-.183-.062.901.901 0 0 0-.147-.011.672.672 0 0 0-.223.035.438.438 0 0 0-.278.257.585.585 0 0 0 0 .42.502.502 0 0 0 .285.259c.074.022.151.03.229.025zM21.357 18.149h.631v.144h-.825v-1.261h.198l-.005 1.117zM22.645 18.293h-.198v-1.261h.198v1.261zM23.381 17.038a.1.1 0 0 1 .03.023l.845.951a.338.338 0 0 1 0-.045V17.027h.172v1.266h-.099a.09.09 0 0 1-.043-.007.092.092 0 0 1-.031-.024l-.844-.95v.981h-.165v-1.261h.103c.011 0 .022.002.032.006zM25.885 17.032v.139h-.701v.416h.568v.134h-.568v.43h.701v.139h-.904v-1.258h.904zM5.161 9.244l8.781 2.153v7.543l-8.781-2.152V9.244zm-.563-.643v8.554l9.907 2.429v-8.553l-9.907-2.43z"/><path fill="#afb1b8" style="fill:var(--color3, #afb1b8)" d="M9.908 23.555 0 21.124v-8.553l9.908 2.43v8.554z"/><path fill="#afb1b8" style="fill:var(--color3, #afb1b8)" d="m4.762 9.148 8.667 2.126-3.686 3.183-8.668-2.127 3.687-3.182zm-.164-.547L0 12.571l9.908 2.43 4.597-3.97-9.907-2.43zM10.465 23.074l4.04-3.488-4.04-.991v4.48z"/></symbol><symbol id="email" viewBox="0 0 32 32"><path fill="#757575" style="fill:var(--color4, #757575)" d="M29 4H3C1.346 4 0 5.346 0 7v18c0 1.654 1.346 3 3 3h26c1.654 0 3-1.346 3-3V7c0-1.654-1.346-3-3-3zm0 2c.136 0 .265.028.383.077L16 17.676 2.617 6.077A.996.996 0 0 1 3 6h26zm0 20H3a1 1 0 0 1-1-1V8.19l13.345 11.565a.998.998 0 0 0 1.31 0L30 8.19V25a1 1 0 0 1-1 1z"/></symbol><symbol id="facebook" viewBox="0 0 32 32"><path fill="#afb1b8" style="fill:var(--color3, #afb1b8)" d="M21.329 5.313h2.921V.225C23.746.156 22.013 0 19.994 0c-4.212 0-7.097 2.649-7.097 7.519V12H8.249v5.688h4.648V32h5.699V17.689h4.46l.708-5.688h-5.169V8.082c.001-1.644.444-2.769 2.735-2.769z"/></symbol><symbol id="facebookfooter" viewBox="0 0 32 32"><path fill="#fff" style="fill:var(--color5, #fff)" d="M21.329 5.313h2.921V.225C23.746.156 22.013 0 19.994 0c-4.212 0-7.097 2.649-7.097 7.519V12H8.249v5.688h4.648V32h5.699V17.689h4.46l.708-5.688h-5.169V8.082c.001-1.644.444-2.769 2.735-2.769z"/></symbol><symbol id="instafooter" viewBox="0 0 32 32"><path fill="#fff" style="fill:var(--color5, #fff)" d="M31.969 9.408c-.075-1.7-.35-2.869-.744-3.882a7.806 7.806 0 0 0-1.851-2.838A7.867 7.867 0 0 0 26.542.844C25.523.45 24.36.175 22.66.1 20.947.019 20.403 0 16.059 0s-4.888.019-6.595.094c-1.7.075-2.869.35-3.882.744a7.803 7.803 0 0 0-2.838 1.85A7.867 7.867 0 0 0 .9 5.52C.506 6.539.231 7.702.156 9.402c-.081 1.713-.1 2.257-.1 6.601s.019 4.888.094 6.595c.075 1.7.35 2.869.744 3.882a7.895 7.895 0 0 0 1.85 2.838 7.867 7.867 0 0 0 2.832 1.844c1.019.394 2.182.669 3.882.744 1.706.075 2.25.094 6.595.094s4.888-.019 6.595-.094c1.7-.075 2.869-.35 3.882-.744a8.184 8.184 0 0 0 4.682-4.682c.394-1.019.669-2.182.744-3.882.075-1.707.094-2.251.094-6.595s-.006-4.888-.081-6.595zm-2.882 13.065c-.069 1.563-.331 2.407-.55 2.969a5.31 5.31 0 0 1-3.038 3.038c-.563.219-1.413.481-2.969.55-1.688.075-2.194.094-6.464.094s-4.782-.019-6.464-.094c-1.563-.069-2.407-.331-2.969-.55a4.926 4.926 0 0 1-1.838-1.194 4.974 4.974 0 0 1-1.194-1.838c-.219-.563-.481-1.413-.55-2.969-.075-1.688-.094-2.194-.094-6.464s.019-4.782.094-6.464c.069-1.563.331-2.407.55-2.969a4.868 4.868 0 0 1 1.2-1.838A4.974 4.974 0 0 1 6.639 3.55c.563-.219 1.413-.481 2.969-.55 1.688-.075 2.194-.094 6.464-.094 4.276 0 4.782.019 6.464.094 1.563.069 2.407.331 2.969.55a4.914 4.914 0 0 1 1.838 1.194 4.974 4.974 0 0 1 1.194 1.838c.219.563.481 1.413.55 2.969.075 1.688.094 2.194.094 6.464s-.019 4.77-.094 6.458z"/><path fill="#fff" style="fill:var(--color5, #fff)" d="M16.059 7.783c-4.538 0-8.22 3.682-8.22 8.22s3.682 8.22 8.22 8.22c4.539 0 8.22-3.682 8.22-8.22s-3.682-8.22-8.22-8.22zm0 13.552a5.333 5.333 0 0 1 0-10.664 5.333 5.333 0 0 1 0 10.664zM26.524 7.458a1.919 1.919 0 1 1-3.838 0 1.919 1.919 0 0 1 3.838 0z"/></symbol><symbol id="instagram" viewBox="0 0 32 32"><path fill="#afb1b8" style="fill:var(--color3, #afb1b8)" d="M31.969 9.408c-.075-1.7-.35-2.869-.744-3.882a7.806 7.806 0 0 0-1.851-2.838A7.867 7.867 0 0 0 26.542.844C25.523.45 24.36.175 22.66.1 20.947.019 20.403 0 16.059 0s-4.888.019-6.595.094c-1.7.075-2.869.35-3.882.744a7.803 7.803 0 0 0-2.838 1.85A7.867 7.867 0 0 0 .9 5.52C.506 6.539.231 7.702.156 9.402c-.081 1.713-.1 2.257-.1 6.601s.019 4.888.094 6.595c.075 1.7.35 2.869.744 3.882a7.895 7.895 0 0 0 1.85 2.838 7.867 7.867 0 0 0 2.832 1.844c1.019.394 2.182.669 3.882.744 1.706.075 2.25.094 6.595.094s4.888-.019 6.595-.094c1.7-.075 2.869-.35 3.882-.744a8.184 8.184 0 0 0 4.682-4.682c.394-1.019.669-2.182.744-3.882.075-1.707.094-2.251.094-6.595s-.006-4.888-.081-6.595zm-2.882 13.065c-.069 1.563-.331 2.407-.55 2.969a5.31 5.31 0 0 1-3.038 3.038c-.563.219-1.413.481-2.969.55-1.688.075-2.194.094-6.464.094s-4.782-.019-6.464-.094c-1.563-.069-2.407-.331-2.969-.55a4.926 4.926 0 0 1-1.838-1.194 4.974 4.974 0 0 1-1.194-1.838c-.219-.563-.481-1.413-.55-2.969-.075-1.688-.094-2.194-.094-6.464s.019-4.782.094-6.464c.069-1.563.331-2.407.55-2.969a4.868 4.868 0 0 1 1.2-1.838A4.974 4.974 0 0 1 6.639 3.55c.563-.219 1.413-.481 2.969-.55 1.688-.075 2.194-.094 6.464-.094 4.276 0 4.782.019 6.464.094 1.563.069 2.407.331 2.969.55a4.914 4.914 0 0 1 1.838 1.194 4.974 4.974 0 0 1 1.194 1.838c.219.563.481 1.413.55 2.969.075 1.688.094 2.194.094 6.464s-.019 4.77-.094 6.458z"/><path fill="#afb1b8" style="fill:var(--color3, #afb1b8)" d="M16.059 7.783c-4.538 0-8.22 3.682-8.22 8.22s3.682 8.22 8.22 8.22c4.539 0 8.22-3.682 8.22-8.22s-3.682-8.22-8.22-8.22zm0 13.552a5.333 5.333 0 0 1 0-10.664 5.333 5.333 0 0 1 0 10.664zM26.524 7.458a1.919 1.919 0 1 1-3.838 0 1.919 1.919 0 0 1 3.838 0z"/></symbol><symbol id="linkedin" viewBox="0 0 32 32"><path fill="#afb1b8" style="fill:var(--color3, #afb1b8)" d="M31.992 32v-.001H32V20.263c0-5.741-1.236-10.164-7.948-10.164-3.227 0-5.392 1.771-6.276 3.449h-.093v-2.913h-6.364v21.364h6.627V21.42c0-2.785.528-5.479 3.977-5.479 3.399 0 3.449 3.179 3.449 5.657v10.401h6.62zM.528 10.636h6.635V32H.528V10.636zM3.843 0C1.722 0 0 1.721 0 3.843s1.721 3.879 3.843 3.879c2.121 0 3.843-1.757 3.843-3.879A3.846 3.846 0 0 0 3.843 0z"/></symbol><symbol id="linkedinfooter" viewBox="0 0 32 32"><path fill="#fff" style="fill:var(--color5, #fff)" d="M31.992 32v-.001H32V20.263c0-5.741-1.236-10.164-7.948-10.164-3.227 0-5.392 1.771-6.276 3.449h-.093v-2.913h-6.364v21.364h6.627V21.42c0-2.785.528-5.479 3.977-5.479 3.399 0 3.449 3.179 3.449 5.657v10.401h6.62zM.528 10.636h6.635V32H.528V10.636zM3.843 0C1.722 0 0 1.721 0 3.843s1.721 3.879 3.843 3.879c2.121 0 3.843-1.757 3.843-3.879A3.846 3.846 0 0 0 3.843 0z"/></symbol><symbol id="planning" viewBox="0 0 32 32"><path fill="#2196f3" style="fill:var(--color2, #2196f3)" d="M14.926 14.965h1.066v4.798h-1.066v-4.797zM19.19 17.097h1.066v2.665H19.19v-2.665zM10.661 18.696h1.066v1.066h-1.066v-1.066zM7.463 18.163h1.066v1.599H7.463v-1.599z"/><path fill="#212121" style="fill:var(--color1, #212121)" d="M1.599 28.291h25.587a1.6 1.6 0 0 0 1.599-1.599V24.56a1.6 1.6 0 0 0-1.599-1.599h-.533V9.668L29.681 6.8a1.608 1.608 0 1 0-.746-.763L26.654 8.2V6.97a1.6 1.6 0 0 0-1.599-1.599H3.733A1.6 1.6 0 0 0 2.134 6.97v15.992h-.533a1.6 1.6 0 0 0-1.599 1.599v2.132a1.6 1.6 0 0 0 1.599 1.599zM30.384 4.837a.533.533 0 1 1 0 1.067.533.533 0 0 1 0-1.067zM3.198 6.969c0-.294.239-.533.533-.533h21.322c.294 0 .533.239.533.533v2.239l-1.066 1.013V8.035a.533.533 0 0 0-.533-.533H4.797a.533.533 0 0 0-.533.533v13.326c0 .294.239.533.533.533h19.19a.533.533 0 0 0 .533-.533v-9.674l1.066-1.01v12.284H3.198V6.969zm4.798 6.93a1.598 1.598 0 1 0 1.107 2.749l1.853.93a.532.532 0 0 0 .636-.123l3.939-4.431 3.872 2.901a.533.533 0 0 0 .686-.039l3.365-3.188v8.131H5.33V8.569h18.124v2.66l-3.771 3.572-3.904-2.927a.533.533 0 0 0-.718.072l-3.993 4.493-1.493-.746c.011-.064.018-.129.02-.193a1.6 1.6 0 0 0-1.599-1.599zm.533 1.599a.533.533 0 1 1-1.067 0 .533.533 0 0 1 1.067 0zm3.198 8.529h5.331v.533a.533.533 0 0 1-.533.533h-4.264a.533.533 0 0 1-.533-.533v-.533zm-10.661.533c0-.294.239-.533.533-.533h9.062v.533a1.6 1.6 0 0 0 1.599 1.599h4.264a1.6 1.6 0 0 0 1.599-1.599v-.533h9.062c.294 0 .533.239.533.533v2.132a.533.533 0 0 1-.533.533H1.598a.533.533 0 0 1-.533-.533V24.56z"/></symbol><symbol id="punktuality" viewBox="0 0 32 32"><path fill="#212121" style="fill:var(--color1, #212121)" d="M31.297 15.301C31.295 6.849 24.442-.002 15.989 0S.686 6.855.688 15.308a15.304 15.304 0 0 0 10.649 14.576.662.662 0 0 0 .529-.065.637.637 0 0 0 .283-.356l3.865-12.25a1.912 1.912 0 1 0-.84-3.635l-5.106-5.107a.637.637 0 0 0-.902.902l5.103 5.109a1.876 1.876 0 0 0 .536 2.309l-3.683 11.673C3.844 25.783.118 17.71 2.799 10.432S13.553-.572 20.831 2.109s11.004 10.754 8.323 18.032a14.042 14.042 0 0 1-7.462 7.973l-.398-1.874a.638.638 0 0 0-1.048-.344l-3.837 3.426a.637.637 0 0 0 .231 1.084l4.899 1.563a.638.638 0 0 0 .819-.74l-.391-1.839a15.255 15.255 0 0 0 9.329-14.089zm-15.305-.637a.638.638 0 1 1 0 1.277.638.638 0 0 1 0-1.277zm2.101 14.864 2.184-1.948.603 2.84-2.787-.892z"/><path fill="#2196f3" style="fill:var(--color2, #2196f3)" d="M15.354 3.185V4.46a.638.638 0 1 0 1.276 0V3.185a.638.638 0 0 0-1.276 0zM3.876 14.664a.638.638 0 0 0 0 1.276h1.275a.638.638 0 1 0 0-1.276H3.876zM28.108 15.939a.638.638 0 1 0 0-1.276h-1.275a.638.638 0 0 0 0 1.276h1.275z"/></symbol><symbol id="technology" viewBox="0 0 32 32"><path fill="#2196f3" style="fill:var(--color2, #2196f3)" d="M31.974 4.524a.534.534 0 0 0-.43-.363l-1.91-.278-.855-1.731c-.179-.365-.777-.365-.956 0l-.855 1.731-1.91.278a.535.535 0 0 0-.296.91l1.383 1.348-.326 1.903c-.034.2.048.402.212.522a.53.53 0 0 0 .562.04l1.709-.899 1.709.899a.536.536 0 0 0 .775-.563l-.326-1.903 1.383-1.348a.536.536 0 0 0 .135-.547zm-2.463 1.327a.534.534 0 0 0-.153.472l.191 1.114-1-.526a.533.533 0 0 0-.498 0l-1.001.526.191-1.114a.534.534 0 0 0-.153-.472l-.81-.789 1.119-.163a.532.532 0 0 0 .402-.292l.5-1.013.5 1.013a.535.535 0 0 0 .402.292l1.119.163-.809.789zM26.134 20.522h-1.067v1.067h1.067v-1.067zM26.134 22.656h-1.067v1.067h1.067v-1.067zM27.2 21.589h-1.067v1.067H27.2v-1.067zM25.067 21.589H24v1.067h1.067v-1.067zM22.4 26.389h-1.067v1.067H22.4v-1.067zM22.4 28.522h-1.067v1.067H22.4v-1.067zM23.467 27.456H22.4v1.067h1.067v-1.067zM21.333 27.456h-1.067v1.067h1.067v-1.067zM16 24.256h-1.067v1.067H16v-1.067zM16 26.389h-1.067v1.067H16v-1.067zM17.067 25.322H16v1.067h1.067v-1.067zM14.933 25.322h-1.067v1.067h1.067v-1.067zM5.867 6.122H4.8v1.067h1.067V6.122zM5.867 8.255H4.8v1.067h1.067V8.255z"/><path fill="#2196f3" style="fill:var(--color2, #2196f3)" d="M6.933 7.189H5.866v1.067h1.067V7.189zM4.8 7.189H3.733v1.067H4.8V7.189z"/><path fill="#212121" style="fill:var(--color1, #212121)" d="M24.715 14.159a1.775 1.775 0 0 0-1.188-.705 1.778 1.778 0 0 0-1.34.352l-1.252.96-1.898 1.417-1.358-.541c2.421-1.086 4.114-3.508 4.114-6.32 0-3.823-3.123-6.933-6.961-6.933s-6.961 3.11-6.961 6.933a6.86 6.86 0 0 0 1.12 3.758l-2.764-.024h-.005c-.009 0-.015.004-.023.005a.515.515 0 0 0-.155.031l-.038.013c-.006.003-.013.003-.019.006l-3.233 1.596-.001.001-1.893.911a.397.397 0 0 0-.063.035 1.779 1.779 0 0 0-.598 2.295c.22.429.595.745 1.056.889a1.776 1.776 0 0 0 1.378-.128l1.388-.738 2.264-1.169 1.357-.008L2.2 22.211l-.002.001-1.339 1.333c-.316.315-.49.732-.49 1.178s.174.863.49 1.179c.325.323.752.485 1.179.485s.854-.162 1.18-.485l1.314-1.309 1.741-1.3.901.897-1.762 1.754-.002.001-1.339 1.333c-.316.315-.49.732-.49 1.178s.174.863.49 1.179c.325.323.753.485 1.18.485s.855-.162 1.18-.485l3.482-3.467.001-.002 1.01-1-.004-.004c.006-.006.015-.009.022-.015l5.166-5.658 3.471.494a.52.52 0 0 0 .262-.033c.018-.006.033-.015.05-.023.019-.01.039-.015.058-.027l3.213-2.133c.012-.008.018-.021.029-.029.013-.01.029-.014.041-.026l1.271-1.191c.662-.62.753-1.635.212-2.362zM2.13 17.77a.714.714 0 0 1-.558.052.717.717 0 0 1-.213-1.26l1.314-.632.449 1.312-.992.528zm3.498-1.828-1.548.8-.439-1.283 2.027-1.001-.04 1.484zm15.099-6.62a5.79 5.79 0 0 1-.599 2.559l-4.181-1.899a1.863 1.863 0 0 0-.788-1.388l1.464-4.86c2.378.756 4.105 2.974 4.105 5.588zm-11.789 0c0-3.235 2.644-5.867 5.894-5.867.253 0 .5.021.745.052l-1.432 4.754c-.019-.001-.037-.006-.057-.006-1.033 0-1.873.837-1.873 1.867s.84 1.867 1.873 1.867c.694 0 1.294-.383 1.618-.945l3.862 1.755a5.894 5.894 0 0 1-4.737 2.39c-3.25 0-5.894-2.632-5.894-5.867zm5.956.8c0 .441-.362.8-.806.8s-.806-.359-.806-.8c0-.441.362-.8.806-.8s.806.359.806.8zM2.465 25.146a.608.608 0 0 1-.854.001.592.592 0 0 1 0-.844l.962-.958.851.848-.959.955zm3.214 3.734a.608.608 0 0 1-.855.001.592.592 0 0 1 0-.844l.963-.959.852.848-.96.955zm3.481-3.469-.002.001-1.765 1.76-.852-.848 1.763-1.755.002-.001c.04-.04.065-.088.09-.135.007-.014.02-.026.026-.04.017-.041.019-.085.026-.129.003-.025.014-.047.014-.073 0-.036-.013-.07-.02-.106-.006-.032-.006-.065-.019-.095a.55.55 0 0 0-.091-.138c-.01-.012-.014-.027-.025-.038h-.001l-.001-.002-1.607-1.6c-.017-.017-.039-.024-.058-.038a.507.507 0 0 0-.087-.058.515.515 0 0 0-.093-.033.507.507 0 0 0-.103-.02.5.5 0 0 0-.095.005.53.53 0 0 0-.104.02.477.477 0 0 0-.094.045c-.02.011-.042.015-.061.029L4.23 23.486l-.901-.897 2.399-2.386 4.361 4.289-.928.919zm6.819-7.017c-.015-.002-.03.004-.045.003a.556.556 0 0 0-.3.075.492.492 0 0 0-.083.061c-.013.011-.028.017-.04.029l-4.698 5.146-4.328-4.257 2.833-2.818a.534.534 0 0 0-.379-.911v-.001l-2.219.013.028-1.607 3.104.027a6.947 6.947 0 0 0 4.981 2.101c.437 0 .864-.045 1.279-.123.04.032.079.065.13.085l2.41.96.331 1.644-3.003-.427zm4.041.178-.313-1.558 1.446-1.08.947 1.257-2.08 1.381zm3.754-2.831-.838.785-.931-1.236.831-.637a.735.735 0 0 1 .543-.143.718.718 0 0 1 .48.284.713.713 0 0 1-.085.947z"/><path fill="#212121" style="fill:var(--color1, #212121)" d="m13.602 18.544-2.143-2.133a.534.534 0 0 0-.753 0l-2.142 2.133a.537.537 0 0 0 0 .756l2.142 2.133a.536.536 0 0 0 .753 0l2.143-2.133a.535.535 0 0 0 0-.756zm-2.519 1.759-1.387-1.381 1.387-1.381 1.387 1.381-1.387 1.381zM17.164 5.071l-.258 1.036c.071.018 1.738.452 1.738 2.149h1.067c0-2.017-1.666-2.965-2.547-3.185zM19.711 9.322h-1.067v1.067h1.067V9.322z"/></symbol><symbol id="tel" viewBox="0 0 32 32"><path fill="#757575" style="fill:var(--color4, #757575)" d="M23 0H9C7.346 0 6 1.346 6 3v26c0 1.654 1.346 3 3 3h14c1.654 0 3-1.346 3-3V3c0-1.654-1.346-3-3-3zM9 2h14a1 1 0 0 1 1 1v21H8V3a1 1 0 0 1 1-1zm14 28H9a1 1 0 0 1-1-1v-3h16v3a1 1 0 0 1-1 1z"/></symbol><symbol id="twitfooter" viewBox="0 0 32 32"><path fill="#fff" style="fill:var(--color5, #fff)" d="M32 6.078c-1.19.522-2.458.868-3.78 1.036a6.523 6.523 0 0 0 2.886-3.626 13.11 13.11 0 0 1-4.16 1.588A6.574 6.574 0 0 0 22.154 3c-3.632 0-6.556 2.948-6.556 6.562 0 .52.044 1.02.152 1.496-5.454-.266-10.28-2.88-13.522-6.862a6.605 6.605 0 0 0-.898 3.316 6.57 6.57 0 0 0 2.914 5.452 6.479 6.479 0 0 1-2.964-.808v.072c0 3.188 2.274 5.836 5.256 6.446a6.548 6.548 0 0 1-1.72.216 5.8 5.8 0 0 1-1.242-.112c.85 2.598 3.262 4.508 6.13 4.57a13.182 13.182 0 0 1-8.134 2.798c-.538 0-1.054-.024-1.57-.09A18.469 18.469 0 0 0 10.064 29c12.072 0 18.672-10 18.672-18.668 0-.29-.01-.57-.024-.848A13.087 13.087 0 0 0 32 6.078z"/></symbol><symbol id="twitter" viewBox="0 0 32 32"><path fill="#afb1b8" style="fill:var(--color3, #afb1b8)" d="M32 6.078c-1.19.522-2.458.868-3.78 1.036a6.523 6.523 0 0 0 2.886-3.626 13.11 13.11 0 0 1-4.16 1.588A6.574 6.574 0 0 0 22.154 3c-3.632 0-6.556 2.948-6.556 6.562 0 .52.044 1.02.152 1.496-5.454-.266-10.28-2.88-13.522-6.862a6.605 6.605 0 0 0-.898 3.316 6.57 6.57 0 0 0 2.914 5.452 6.479 6.479 0 0 1-2.964-.808v.072c0 3.188 2.274 5.836 5.256 6.446a6.548 6.548 0 0 1-1.72.216 5.8 5.8 0 0 1-1.242-.112c.85 2.598 3.262 4.508 6.13 4.57a13.182 13.182 0 0 1-8.134 2.798c-.538 0-1.054-.024-1.57-.09A18.469 18.469 0 0 0 10.064 29c12.072 0 18.672-10 18.672-18.668 0-.29-.01-.57-.024-.848A13.087 13.087 0 0 0 32 6.078z"/></symbol></defs></svg>